# xmcd CD database file
#
# Track frame offsets:
#	183
#	18858
#	37533
#	55233
#	89433
#	105858
#	127908
#	144708
#	164983
#	188058
#
# Disc length: 2761 seconds
#
# Revision: 0
# Processed by: cddbd v1.5PL3 Copyright (c) Steve Scherf et al.
# Submitted via: CDex 1.51
#
DISCID=780ac70a
DTITLE=Billy C. Farlow - Gulf Coast Blues
DYEAR=1994
DGENRE=Blues
TTITLE0=Back in the big town
TTITLE1=Real gone
TTITLE2=Gulf coast blues
TTITLE3=Meet me at midnight
TTITLE4=Crazy little mama
TTITLE5=Long way to go
TTITLE6=Cannonball
TTITLE7=Tell me
TTITLE8=My name is trouble
TTITLE9=Tennessee saturday night
EXTD=YEAR: 1994
EXTT0=
EXTT1=
EXTT2=
EXTT3=
EXTT4=
EXTT5=
EXTT6=
EXTT7=
EXTT8=
EXTT9=
PLAYORDER=
